<svg height="100pt" viewBox="0 0 100 100" width="100pt" xmlns="http://www.w3.org/2000/svg"><path d="m60.801 50c0 5.9648-4.8359 10.801-10.801 10.801s-10.801-4.8359-10.801-10.801 4.8359-10.801 10.801-10.801 10.801 4.8359 10.801 10.801"/><path d="m93.199 45.699h-6.5c-2-17-15.5-30.5-32.398-32.398v-6.5c0-2.3984-1.8984-4.3008-4.3008-4.3008-2.3984 0-4.3008 1.8984-4.3008 4.3008v6.5c-17 2-30.5 15.5-32.398 32.398h-6.5c-2.3984 0-4.3008 1.8984-4.3008 4.3008 0 2.3984 1.8984 4.3008 4.3008 4.3008h6.5c2 17 15.5 30.5 32.398 32.398v6.5c0 2.3984 1.8984 4.3008 4.3008 4.3008 2.3984 0 4.3008-1.8984 4.3008-4.3008v-6.5c17-2 30.5-15.5 32.398-32.398h6.5c2.3984 0 4.3008-1.8984 4.3008-4.3008 0-2.3984-1.8984-4.3008-4.3008-4.3008zm-38.898 32.402v-5.8984c0-2.3984-1.8984-4.3008-4.3008-4.3008-2.3984 0-4.3008 1.8984-4.3008 4.3008v5.8984c-12.301-1.8984-22-11.602-23.801-23.801h5.8984c2.3984 0 4.3008-1.8984 4.3008-4.3008 0-2.3984-1.8984-4.3008-4.3008-4.3008h-5.8984c1.8984-12.301 11.602-22 23.801-23.801v5.8984c0 2.3984 1.8984 4.3008 4.3008 4.3008 2.3984 0 4.3008-1.8984 4.3008-4.3008v-5.8984c12.301 1.8984 22 11.602 23.801 23.801h-5.8984c-2.3984 0-4.3008 1.8984-4.3008 4.3008 0 2.3984 1.8984 4.3008 4.3008 4.3008h5.8984c-1.9023 12.199-11.602 21.898-23.801 23.801z"/></svg>