<?xml version="1.0" encoding="utf-8"?>
<svg version="1" width="165" height="119.7" viewBox="1.334 31.45 163.666 88.25" xmlns="http://www.w3.org/2000/svg" xmlns:bx="https://boxy-svg.com">
  <defs>
    <bx:grid x="1.334" y="31.45" width="162.586" height="87.49"/>
  </defs>
  <path d="M57.5 76.2c0 1.2-.8 1.6-1.4 1.6-.8 0-1.2-.6-1.2-1.4v-4.9h-1.1v5.4c0 1.2.7 1.8 1.9 1.8.7 0 1.4-.3 1.8-1v.9h1.2c0-.5-.1-1-.1-1.5v-5.6h-1.1v4.7zm8.2 2.4v-4.9c0-1.4-.4-2.3-1.9-2.3-.9 0-1.4.3-1.9 1h-.1v-.9h-1.2c0 .5.1 1 .1 1.5v5.6h1.2v-4.2c0-1 .2-2.1 1.4-2.1 1 0 1.2.6 1.2 1.4v4.9h1.2zm5.7-3.9c0 1.4 0 3-1.3 3-1.4 0-1.4-1.5-1.4-2.6 0-1.9.2-2.9 1.4-2.9 1.2.1 1.3 1.6 1.3 2.5m0-2.5c-.4-.6-.9-.9-1.6-.9-2.3 0-2.3 2-2.3 3.8 0 3.1 1.1 3.6 2.3 3.6.7 0 1.2-.3 1.6-1v.8h1.1v-10h-1.1v3.7zm7.2 6.4v-4.7h3.6v-1.1h-3.6v-3.2h3.7v-1.1h-5v10.1m8.6-.8c-1.2 0-1.5-.8-1.5-3.1 0-1.9.6-2.4 1.5-2.4s1.5.4 1.5 2.4c0 2.2-.3 3.1-1.5 3.1m0 .9c1.5 0 2.7-.4 2.7-3.6 0-2.1-.2-3.8-2.7-3.8-2.4 0-2.7 1.7-2.7 3.8 0 3.2 1.2 3.6 2.7 3.6m5.6-7.2h-1.1v7.1h1.1v-4.2c0-1 .3-1.9 1.6-1.9.2 0 .4 0 .6.1v-1.2c-1.1 0-1.7.1-2.2 1.2v-1.1zm7.9 5.1c0-2.2-3.5-2.1-3.5-3.4 0-.6.5-1 1.1-1 .7 0 1.1.4 1.1 1.1h1.3c.1-1.4-1-2-2.2-2-2 0-2.4 1.2-2.4 1.9 0 2.1 3.5 2.1 3.5 3.4 0 .7-.5 1.1-1.2 1.1-1.2 0-1.2-1-1.2-1.4h-1.3c0 1.6.9 2.3 2.4 2.3 1.4.1 2.4-.5 2.4-2m6.4-2.8c.1-1.6-.8-2.4-2.2-2.4-2.4 0-2.7 1.7-2.7 3.8 0 3.1 1.2 3.6 2.7 3.6.8 0 2.3-.5 2.2-2.5h-1.2c0 1.3-.8 1.6-1 1.6-1.2 0-1.5-.8-1.5-3.1 0-1.9.6-2.4 1.5-2.4.4 0 1 .3 1 1.5l1.2-.1zm6.9 4.8v-5c0-1.6-.7-2.2-1.9-2.2-.9 0-1.5.2-1.9 1h-.1v-3.9h-1.1v10.1h1.1v-4.2c0-1.2.3-2.1 1.4-2.1 1 0 1.3.6 1.3 1.5v4.8h1.2zm5.8-2.4c0 1.2-.8 1.6-1.4 1.6-.8 0-1.2-.6-1.2-1.4v-4.9h-1.1v5.4c0 1.2.7 1.8 1.9 1.8.7 0 1.4-.3 1.8-1v.9h1.2c0-.5-.1-1-.1-1.5v-5.6h-1.1v4.7zm8.2 2.4v-4.9c0-1.4-.4-2.3-1.9-2.3-.9 0-1.4.3-1.9 1h-.1v-.9h-1.2c0 .5.1 1 .1 1.5v5.6h1.1v-4.2c0-1 .2-2.1 1.4-2.1 1 0 1.2.6 1.2 1.4v4.9h1.3zm5.6-3.6c0 1 0 2.6-1.3 2.6-.9 0-1.4-.5-1.4-2.8 0-.9 0-2.5 1.3-2.5 1.5 0 1.4 1.6 1.4 2.7m0-2.6c-.4-.7-.9-1-1.7-1-.6 0-2.2.2-2.2 3.5 0 2.1.4 3.8 2.3 3.8.6 0 1.3-.3 1.6-.9v1.5c0 .7-.4 1.2-1.2 1.2-.6 0-1.1-.4-1.1-1h-1.3c-.1 1.3 1 1.9 2.1 1.9 1.6 0 2.6-.4 2.6-2v-7.8h-1.1v.8zm-79-15.9v.9h1.1v6.2h1.1v-6.2h1.4v-.9h-1.4v-1.2c0-.6.2-1.1 1.4-1v-.8h-.5c-1 0-2 .3-2 1.7v1.4h-1.1v-.1zm6.7-2.6h-1.3v1.5H60v-1.5zm2.4 0h-1.3v1.5h1.3v-1.5zm-.6 7.3c0 1.2-.8 1.6-1.4 1.6-.8 0-1.2-.6-1.2-1.4v-4.9h-1.1v5.4c0 1.2.7 1.8 1.9 1.8.7 0 1.4-.3 1.8-1v.9H63c0-.5-.1-1-.1-1.5v-5.6h-1.1v4.7zm4.4-4.7h-1.1v7.1h1.1v-4.2c0-1 .3-1.9 1.6-1.9.2 0 .4 0 .6.1v-1.2c-1.1 0-1.7.1-2.2 1.2v-1.1zm7 2.3h1.4c1.3 0 2.3.3 2.3 1.9 0 .7-.5 1.7-1.9 1.7h-1.8v-3.6zm0-4.2H75c1.1 0 1.6.7 1.6 1.5 0 1-.5 1.6-1.5 1.6h-1.9v-3.1zm2 9c1.1 0 3-.3 3-2.8 0-1.4-.6-2.3-2.1-2.4v-.1c1.3-.3 1.7-1.1 1.7-2.4 0-.2-.1-.8-.4-1.3-.4-.6-.9-1-2.3-1h-3.3v10.1l3.4-.1zm6-7.1h-1.1v7.1h1.1v-7.1zM80 54.7h1.3v-1.2H80v1.2zm3.3-1.2h1.1v10.1h-1.1zm6.9 6.2c0 1.4 0 3-1.3 3-1.4 0-1.4-1.5-1.4-2.6 0-1.9.2-2.9 1.4-2.9 1.2.1 1.3 1.6 1.3 2.5m0-2.5c-.4-.6-.9-.9-1.6-.9-2.3 0-2.3 2-2.3 3.8 0 3.1 1.1 3.6 2.3 3.6.7 0 1.2-.3 1.6-1v.8h1.1v-10h-1.1v3.7zm7 4c0 1.2-.8 1.6-1.4 1.6-.8 0-1.2-.6-1.2-1.4v-4.9h-1.2v5.4c0 1.2.7 1.8 1.9 1.8.7 0 1.4-.3 1.8-1v.9h1.2c0-.5-.1-1-.1-1.5v-5.6h-1.1l.1 4.7zm8.2 2.4v-4.9c0-1.4-.4-2.3-1.9-2.3-.9 0-1.4.3-1.9 1h-.1v-.9h-1.2c0 .5.1 1 .1 1.5v5.6h1.1v-4.2c0-1 .2-2.1 1.4-2.1 1 0 1.2.6 1.2 1.4v4.9h1.3zm5.7-3.6c0 1 0 2.6-1.3 2.6-.9 0-1.4-.5-1.4-2.8 0-.9 0-2.5 1.3-2.5 1.5 0 1.4 1.6 1.4 2.7m0-2.6c-.4-.7-.9-1-1.7-1-.6 0-2.2.2-2.2 3.5 0 2.1.4 3.8 2.3 3.8.6 0 1.3-.3 1.6-.9v1.5c0 .7-.4 1.2-1.2 1.2-.6 0-1.1-.4-1.1-1h-1.3c-.1 1.3 1 1.9 2.1 1.9 1.6 0 2.6-.4 2.6-2v-7.8h-1.1v.8zm-56-13.6h1.4c1.3 0 2.3.3 2.3 1.9 0 .7-.5 1.7-1.9 1.7h-1.8v-3.6zm0-4.2h1.8c1.1 0 1.6.7 1.6 1.5 0 1-.5 1.6-1.5 1.6h-1.9v-3.1zm2 9c1.2 0 3-.3 3-2.8 0-1.4-.6-2.3-2.1-2.4v-.1c1.3-.3 1.7-1.1 1.7-2.4 0-.2-.1-.8-.4-1.3-.4-.6-.9-1-2.3-1h-3.3v10.1l3.4-.1zm8.4-2.4c0 1.2-.8 1.6-1.4 1.6-.8 0-1.2-.6-1.2-1.4v-4.9h-1.1v5.4c0 1.2.7 1.8 1.9 1.8.7 0 1.4-.3 1.8-1v.9h1.2c0-.5-.1-1-.1-1.5v-5.6h-1.1v4.7zm8.2 2.4v-4.9c0-1.4-.4-2.3-1.9-2.3-.9 0-1.4.3-1.9 1h-.1v-.9h-1.2c0 .5.1 1 .1 1.5v5.6h1.1v-4.2c0-1 .2-2.1 1.4-2.1 1 0 1.2.6 1.2 1.4v4.9h1.3zm5.7-3.9c0 1.4 0 3-1.3 3-1.4 0-1.4-1.5-1.4-2.6 0-1.9.2-2.9 1.4-2.9 1.2.1 1.3 1.6 1.3 2.5m0-2.5c-.4-.6-.9-.9-1.6-.9-2.3 0-2.3 2-2.3 3.8 0 3.1 1.1 3.6 2.3 3.6.7 0 1.2-.3 1.6-1v.8h1.1v-10h-1.1v3.7zm4.1 2.3c0-2 .6-2.3 1.3-2.3.8 0 1.4.3 1.4 2.3h-2.7zm4 .9v-.6c0-2.3-.5-3.4-2.5-3.4-2.4 0-2.7 1.7-2.7 3.8 0 3.1 1.2 3.6 2.7 3.6s2.4-.7 2.5-2.3h-1.3c0 .7-.4 1.3-1.2 1.3-.9 0-1.4-.4-1.4-2.4h3.9zm6.3 1.2c0-2.2-3.5-2.1-3.5-3.4 0-.6.5-1 1.1-1 .7 0 1.1.4 1.1 1.1h1.3c.1-1.4-1-2-2.2-2-2 0-2.4 1.2-2.4 1.9 0 2.1 3.5 2.1 3.5 3.4 0 .7-.5 1.1-1.2 1.1-1.2 0-1.2-1-1.2-1.4H89c0 1.6.9 2.3 2.4 2.3 1.3.1 2.4-.5 2.4-2m6.4 2v-4.8c0-.3.1-1 .4-1.2.3-.3.4-.3.9-.3.9 0 1.1.7 1.1 1.4v4.9h1.1v-5.4c0-1.7-1.2-1.8-1.9-1.8-.6 0-1.3.2-1.7.9-.3-.6-1-.9-1.7-.9-.8 0-1.4.3-1.8 1v-.9h-1.2c0 .5.1 1 .1 1.5v5.6h1.1v-4.8c0-.3.1-.7.3-1 .2-.3.6-.5 1-.5.9 0 1.1.7 1.1 1.4v4.9h1.2zm6.7-7.1h-1.1v7.1h1.1v-7.1zm-1.2-1.8h1.3v-1.2h-1.3v1.2zm8.3 8.9v-4.9c0-1.4-.4-2.3-1.9-2.3-.9 0-1.4.3-1.9 1h-.1v-.9h-1.2c0 .5.1 1 .1 1.5v5.6h1.1v-4.2c0-1 .2-2.1 1.4-2.1 1 0 1.2.6 1.2 1.4v4.9h1.3zm3.1-7.1H116v7.1h1.1v-7.1zm-1.2-1.8h1.3v-1.2h-1.3v1.2zm7.8 6.9c0-2.2-3.5-2.1-3.5-3.4 0-.6.5-1 1.1-1 .7 0 1.1.4 1.1 1.1h1.3c.1-1.4-1-2-2.2-2-2 0-2.4 1.2-2.4 1.9 0 2.1 3.5 2.1 3.5 3.4 0 .7-.5 1.1-1.2 1.1-1.2 0-1.2-1-1.2-1.4h-1.3c0 1.6.9 2.3 2.4 2.3 1.3.1 2.4-.5 2.4-2m.7-5.1v.9h1.2v5c0 .8.5 1.3 1.6 1.3.4 0 .8-.1 1.1-.1v-.9c-.3 0-.4.1-.5.1-1 0-1-.6-1-1v-4.3h1.5v-.9h-1.5v-1.9l-1.2.5v1.4l-1.2-.1zm6.1 3c0-2 .6-2.3 1.3-2.3.8 0 1.4.3 1.4 2.3h-2.7zm4 .9v-.6c0-2.3-.5-3.4-2.5-3.4-2.5 0-2.7 1.7-2.7 3.8 0 3.1 1.2 3.6 2.7 3.6s2.4-.7 2.5-2.3h-1.3c0 .7-.4 1.3-1.2 1.3-.9 0-1.4-.4-1.4-2.4h3.9zm2.8-3.9h-1.1v7.1h1.1v-4.2c0-1 .3-1.9 1.6-1.9.2 0 .4 0 .6.1v-1.2c-1.1 0-1.7.1-2.2 1.2v-1.1zm4.6 0h-1.1v7.1h1.1v-7.1zm-1.2-1.8h1.3v-1.2h-1.3v1.2zm6.9 6.5c0 1.2-.8 1.6-1.4 1.6-.8 0-1.2-.6-1.2-1.4v-4.9h-1.1v5.4c0 1.2.7 1.8 1.9 1.8.7 0 1.4-.3 1.8-1v.9h1.2c0-.5-.1-1-.1-1.5v-5.6h-1.1v4.7zm7.9 2.4v-4.8c0-.3.1-1 .4-1.2.3-.3.4-.3.9-.3.9 0 1.1.7 1.1 1.4v4.9h1.2v-5.4c0-1.7-1.2-1.8-1.9-1.8-.6 0-1.3.2-1.7.9-.3-.6-1-.9-1.7-.9-.8 0-1.4.3-1.8 1v-.9h-1.2c0 .5.1 1 .1 1.5v5.6h1.1v-4.8c0-.3.1-.7.3-1s.6-.5 1-.5c.9 0 1.1.7 1.1 1.4v4.9h1.1z" fill="#1E1E1C"/>
  <path fill="#F9D300" d="M40.5 88.6h4.4v25h-4.4z"/>
  <path fill="#E20717" d="M40.5 63.5h4.4v25.1h-4.4z"/>
  <path fill="#1E1E1C" d="M 40.5 38.6 L 44.9 38.6 L 44.9 63.6 L 40.5 63.6 L 40.5 38.6 Z M 26.7 42.8 C 26.7 41.4 25.7 40.2 25.3 39.9 L 25.1 40 C 25.5 40.5 26.2 41.3 26.2 42.3 C 26.2 44.4 24 46.2 21.5 46.2 L 21.5 46.8 C 21.5 47.1 21.5 47.4 21.4 47.7 C 24.2 47.6 26.7 45.3 26.7 42.8 M 22.8 59.9 C 21.6 59.9 21.3 59.8 21 59.8 C 20.8 59.8 20.6 59.8 20.6 60.1 C 20.6 60.3 20.8 60.6 21 60.7 C 21.3 60.4 21.7 60.4 22.3 60.4 C 22.6 60.4 23 60.5 23.2 60.5 C 23.2 60.7 23.1 60.9 23.1 61.2 L 23.1 61.8 C 23.1 62.5 23 62.9 22.7 63.2 C 22.8 63.2 22.9 63.3 23 63.3 C 23.5 63.3 23.6 63.1 23.6 61.9 L 23.6 61.1 C 24.2 61.6 24.9 62.5 24.9 63.1 C 25.1 63 25.4 62.7 25.4 62.4 C 25.4 62 24.7 61.3 23.9 60.5 C 24 60.5 24.3 60.4 24.5 60.4 C 25.1 60.4 25.6 60.5 25.9 60.8 C 26 60.7 26.1 60.3 26.1 60.1 C 26.1 59.7 25.9 59.8 25.7 59.8 C 25.1 59.8 24.3 59.9 23.7 60 C 23.5 59.7 22.2 57.9 21.8 57 C 21.7 57 21.6 56.9 21.5 56.9 C 21.2 56.9 21.1 57.1 21 57.4 C 21.9 58.3 22.6 59.2 22.8 59.9 M 15.6 57.4 C 15.5 57.1 15.4 56.9 15.1 56.9 C 14.9 56.9 14.9 56.9 14.8 57 C 14.5 57.9 13.1 59.7 12.9 60 C 12.3 59.9 11.5 59.8 10.9 59.8 C 10.7 59.8 10.5 59.8 10.5 60.1 C 10.5 60.3 10.6 60.7 10.7 60.8 C 11 60.5 11.5 60.4 12.1 60.4 C 12.3 60.4 12.6 60.5 12.7 60.5 C 11.9 61.3 11.2 61.9 11.2 62.4 C 11.2 62.6 11.4 63 11.7 63.1 C 11.7 62.5 12.4 61.6 13 61.1 L 13 61.9 C 13 63.1 13.1 63.3 13.6 63.3 C 13.7 63.3 13.8 63.3 13.9 63.2 C 13.7 62.9 13.5 62.5 13.5 61.8 L 13.5 61.2 C 13.5 60.9 13.5 60.7 13.4 60.5 C 13.6 60.5 14 60.4 14.3 60.4 C 14.9 60.4 15.3 60.5 15.6 60.7 C 15.8 60.5 16 60.3 16 60.1 C 16 59.8 15.8 59.8 15.6 59.8 C 15.3 59.8 15 59.9 13.8 59.9 C 14.2 59.2 14.9 58.3 15.6 57.4 M 10.6 42.3 C 10.6 41.3 11.3 40.5 11.7 40 L 11.4 39.9 C 11 40.2 10 41.3 10 42.8 C 10 45.3 12.5 47.6 15.4 47.6 L 15.4 46.1 C 12.9 46.2 10.6 44.4 10.6 42.3 M 18.3 40.4 C 18.4 40.1 18.6 39.7 18.6 39.4 C 18.6 38.3 17.7 37.8 16.5 37.8 C 15.9 37.8 15.6 38 15.6 38.2 C 15.6 38.4 15.8 38.8 15.9 39 C 16.1 38.9 16.5 38.8 16.8 38.8 C 17.6 38.7 18.2 39.6 18.3 40.4 M 18.9 39 C 19.6 39.1 20.1 38.2 19.4 38.1 C 19.5 38.4 19 38.6 19 38.6 C 19 38.6 18.8 38.2 19 38 C 18.6 37.8 18.5 38 18.5 38.3 C 18.8 38.5 18.9 38.7 18.9 39 M 21.2 45.1 L 21.5 45.1 C 23.5 45.1 25.4 43.8 25.4 42.2 C 25.4 41.3 25 40.7 24.5 40 C 24.2 40 24 40.1 23.8 40.1 C 22.9 40.1 22.4 39.6 22.4 39.1 C 22.4 38.7 22.7 38.4 23.3 38.4 C 24.1 38.4 25.6 39.2 27.2 39.2 C 27 39.3 26.8 39.4 26.5 39.5 C 27.4 40.3 28 41.4 28.2 42.5 L 30.5 46.2 C 30.9 46.8 31.7 48.1 33 49 C 31.5 49 30.5 49 29.2 47 L 28 45.3 C 27.9 45.5 27.8 45.8 27.7 46 L 30.1 49.8 C 30.5 50.4 31.3 51.7 32.6 52.6 C 31.1 52.6 30.1 52.6 28.8 50.6 L 26.7 47.3 L 26.2 47.8 L 29.1 52.4 C 29.5 53 30.3 54.2 31.6 55.2 C 30.1 55.2 29.1 55.2 27.8 53.2 L 25 48.7 L 24.4 49 L 27.8 54.5 C 28.2 55.1 29 56.3 30.3 57.3 C 28.8 57.3 27.8 57.3 26.5 55.3 L 23 49.6 C 22.8 49.7 22.6 49.8 22.4 49.8 L 26.4 56.2 C 26.8 56.8 27.6 58.1 28.9 59 C 27.4 59 26.4 59 25.1 57 L 20.8 50.2 L 20.7 50.2 C 20.6 50.6 20.5 50.9 20.5 51.3 C 20.5 53.4 21.9 55.3 23.6 56.8 C 23.5 56.8 23.3 56.9 23.1 56.9 L 22.4 56.9 C 22.8 57.8 23.6 58.9 24.1 59.5 C 24.7 59.4 25.5 59.3 26 59.3 C 26.6 59.3 26.6 59.6 26.6 59.9 C 26.6 60.4 26.4 60.8 26.1 61 C 26 60.7 25.8 60.4 24.8 60.4 L 24.7 60.4 C 25 60.7 25.9 61.5 25.9 62.1 C 25.9 62.5 25.5 63.1 24.9 63.1 L 24.9 62.8 C 24.9 62.3 24.5 61.7 24.1 61.3 L 24.1 61.5 C 24.1 62.7 24 63.2 23.3 63.2 C 22.9 63.2 22.7 63 22.6 62.9 C 23.1 62.5 23.1 62.1 23.1 61.5 L 23.1 60.4 L 22.5 60.4 C 22.5 60.4 21.4 60.3 21.2 60.9 C 20.9 60.6 20.5 60.3 20.5 59.9 C 20.5 59.6 20.6 59.3 21.2 59.3 C 21.4 59.3 22 59.4 22.6 59.4 C 22.5 59.1 21.8 58.1 21.3 57.4 C 21.2 57.7 21.1 58 20.8 58.2 C 20.8 57.8 20.5 56.4 19.8 55.6 C 19.7 56.1 19.6 56.7 19.6 57.9 C 19.6 60.8 20.3 62.9 21.8 63.3 C 21.6 63.6 21.2 63.9 20.8 63.9 C 20.3 63.9 20 63.3 19.7 62.7 C 19.5 63.1 19.1 64.2 18.7 64.2 C 18.3 64.2 17.8 63.2 17.7 62.7 C 17.4 63.3 17.1 63.9 16.6 63.9 C 16.2 63.9 15.8 63.6 15.6 63.3 C 17.1 62.9 17.8 60.8 17.8 57.9 C 17.8 56.7 17.7 56.1 17.6 55.6 C 16.9 56.4 16.7 57.8 16.6 58.2 C 16.3 58 16.2 57.7 16.1 57.4 C 15.5 58.1 14.9 59 14.8 59.4 C 15.3 59.4 16 59.3 16.2 59.3 C 16.7 59.3 16.9 59.6 16.9 59.9 C 16.9 60.3 16.5 60.7 16.2 60.9 C 15.9 60.4 14.9 60.4 14.9 60.4 L 14.3 60.4 L 14.3 61.5 C 14.3 62.2 14.3 62.5 14.8 62.9 C 14.7 63 14.5 63.2 14.1 63.2 C 13.4 63.2 13.3 62.7 13.3 61.5 L 13.3 61.3 C 12.9 61.7 12.5 62.3 12.5 62.8 L 12.5 63.1 C 11.9 63.1 11.5 62.5 11.5 62.1 C 11.5 61.5 12.4 60.7 12.7 60.4 L 12.6 60.4 C 11.6 60.4 11.4 60.7 11.3 61 C 11 60.8 10.8 60.4 10.8 59.9 C 10.8 59.6 10.9 59.3 11.4 59.3 C 11.9 59.3 12.7 59.4 13.3 59.5 C 13.7 58.9 14.6 57.8 15 56.9 L 14.3 56.9 C 14.1 56.9 13.9 56.9 13.8 56.8 C 15.5 55.3 16.9 53.4 16.9 51.3 C 16.9 51 16.8 50.6 16.7 50.2 L 16.6 50.2 L 12.3 57 C 11 59 10 59 8.5 59 C 9.7 58 10.6 56.8 11 56.2 L 15 49.8 C 14.8 49.7 14.6 49.7 14.4 49.6 L 10.9 55.3 C 9.6 57.3 8.6 57.3 7.1 57.3 C 8.4 56.3 9.2 55.1 9.6 54.5 L 13 49 L 12.4 48.7 L 9 53.3 C 7.7 55.3 6.7 55.3 5.2 55.3 C 6.5 54.3 7.3 53.1 7.7 52.5 L 10.6 47.9 L 10.1 47.4 L 8 50.6 C 6.7 52.6 5.7 52.6 4.2 52.6 C 5.5 51.6 6.3 50.4 6.7 49.8 L 9.1 46 C 9 45.8 8.9 45.5 8.8 45.3 L 7.6 47.2 C 6.3 49.2 5.3 49.2 3.8 49.2 C 5.1 48.2 5.9 47 6.3 46.4 L 8.6 42.7 C 8.8 41.5 9.4 40.5 10.3 39.7 C 10 39.6 9.8 39.5 9.6 39.4 C 11.1 39.4 12.6 38.6 13.5 38.6 C 14 38.6 14.4 38.9 14.4 39.3 C 14.4 39.8 13.9 40.3 13 40.3 C 12.8 40.3 12.5 40.3 12.3 40.2 C 11.8 40.9 11.4 41.5 11.4 42.4 C 11.4 44 13.4 45.3 15.3 45.3 L 15.6 45.3 C 16 44 16.8 43.1 17.5 42.3 C 16.7 42 15.8 41.3 15.8 40.9 C 15.9 40.8 17.4 41.3 17.6 41.4 L 17.7 41.4 C 17.9 41.3 18 41.1 18 41 C 17.8 41 16.9 40.8 16.2 40.6 C 15.7 40.4 15.4 40.1 15.4 40 C 15.6 40 16.2 40.3 17.1 40.3 C 17.4 40.3 17.5 40.3 17.8 40.2 C 17.6 39.7 17.1 39.2 16.7 39.2 C 16.5 39.2 16.1 39.3 15.7 39.5 C 15.5 39.1 15.2 38.6 15.2 38.3 C 15.2 38 15.5 37.6 16.4 37.6 C 16.7 37.6 16.9 37.6 17.1 37.7 C 17.3 37.7 17.4 37.8 17.6 37.8 L 17.6 37.7 C 17.6 37.6 17.7 37.4 18.1 37.4 C 18.9 37.4 19.6 37.6 20.6 37.6 C 20.8 37.6 21 37.6 21.2 37.5 C 21.1 37.7 20.9 38 20.6 38.2 C 20.8 38.4 21.1 38.9 21.1 39.7 C 21.1 41 20.3 42.1 20.3 43.4 C 20.4 44.1 21 44.7 21.2 45.1"/>
</svg>